<mxfile host="Electron" modified="2023-10-19T21:17:40.704Z" agent="Mozilla/5.0 (Windows NT 10.0; Win64; x64) AppleWebKit/537.36 (KHTML, like Gecko) draw.io/22.0.2 Chrome/114.0.5735.289 Electron/25.8.4 Safari/537.36" etag="i2nT82fO4zvftaW6sjIS" version="22.0.2" type="device">
  <diagram name="Page-1" id="x3olLGrZ6FTfYM2yyFCH">
    <mxGraphModel dx="752" dy="1187" grid="1" gridSize="10" guides="1" tooltips="1" connect="1" arrows="1" fold="1" page="1" pageScale="1" pageWidth="827" pageHeight="1169" math="0" shadow="0">
      <root>
        <mxCell id="0" />
        <mxCell id="1" parent="0" />
        <mxCell id="gLwlA3-xsDoQh8GLoEzg-1" value="Voll Backup" style="rounded=0;whiteSpace=wrap;html=1;labelPosition=center;verticalLabelPosition=middle;align=center;verticalAlign=middle;labelBackgroundColor=none;fillColor=#ffe6cc;strokeColor=#d79b00;" vertex="1" parent="1">
          <mxGeometry x="120" y="110" width="60" height="360" as="geometry" />
        </mxCell>
        <mxCell id="gLwlA3-xsDoQh8GLoEzg-3" value="Diff. Backup" style="rounded=0;whiteSpace=wrap;html=1;direction=south;fillColor=#fff2cc;strokeColor=#d6b656;" vertex="1" parent="1">
          <mxGeometry x="180" y="110" width="160" height="60" as="geometry" />
        </mxCell>
        <mxCell id="gLwlA3-xsDoQh8GLoEzg-4" value="Diff. Backup" style="rounded=0;whiteSpace=wrap;html=1;direction=south;fillColor=#fff2cc;strokeColor=#d6b656;" vertex="1" parent="1">
          <mxGeometry x="180" y="210" width="270" height="60" as="geometry" />
        </mxCell>
        <mxCell id="gLwlA3-xsDoQh8GLoEzg-5" value="Diff. Backup" style="rounded=0;whiteSpace=wrap;html=1;direction=south;fillColor=#fff2cc;strokeColor=#d6b656;" vertex="1" parent="1">
          <mxGeometry x="180" y="310" width="380" height="60" as="geometry" />
        </mxCell>
        <mxCell id="gLwlA3-xsDoQh8GLoEzg-6" value="Diff. Backup" style="rounded=0;whiteSpace=wrap;html=1;direction=south;fillColor=#fff2cc;strokeColor=#d6b656;" vertex="1" parent="1">
          <mxGeometry x="180" y="410" width="520" height="60" as="geometry" />
        </mxCell>
        <mxCell id="gLwlA3-xsDoQh8GLoEzg-7" value="Voll Backup" style="rounded=0;whiteSpace=wrap;html=1;labelPosition=center;verticalLabelPosition=middle;align=center;verticalAlign=middle;labelBackgroundColor=none;fillColor=#ffe6cc;strokeColor=#d79b00;" vertex="1" parent="1">
          <mxGeometry x="120" y="585" width="60" height="245" as="geometry" />
        </mxCell>
        <mxCell id="gLwlA3-xsDoQh8GLoEzg-8" value="Ink. Backup" style="rounded=0;whiteSpace=wrap;html=1;direction=south;fillColor=#fff2cc;strokeColor=#d6b656;" vertex="1" parent="1">
          <mxGeometry x="180" y="585" width="150" height="60" as="geometry" />
        </mxCell>
        <mxCell id="gLwlA3-xsDoQh8GLoEzg-12" value="Ink. Backup" style="rounded=0;whiteSpace=wrap;html=1;direction=south;fillColor=#fff2cc;strokeColor=#d6b656;" vertex="1" parent="1">
          <mxGeometry x="330" y="645" width="150" height="60" as="geometry" />
        </mxCell>
        <mxCell id="gLwlA3-xsDoQh8GLoEzg-13" value="Ink. Backup" style="rounded=0;whiteSpace=wrap;html=1;direction=south;fillColor=#fff2cc;strokeColor=#d6b656;" vertex="1" parent="1">
          <mxGeometry x="480" y="705" width="150" height="60" as="geometry" />
        </mxCell>
        <mxCell id="gLwlA3-xsDoQh8GLoEzg-14" value="Ink. Backup" style="rounded=0;whiteSpace=wrap;html=1;direction=south;fillColor=#fff2cc;strokeColor=#d6b656;" vertex="1" parent="1">
          <mxGeometry x="630" y="765" width="150" height="60" as="geometry" />
        </mxCell>
      </root>
    </mxGraphModel>
  </diagram>
</mxfile>
